<?xml version="1.0" encoding="utf-8"?>
<!-- Generator: Adobe Illustrator 17.0.0, SVG Export Plug-In . SVG Version: 6.00 Build 0)  -->
<!DOCTYPE svg PUBLIC "-//W3C//DTD SVG 1.1//EN" "http://www.w3.org/Graphics/SVG/1.1/DTD/svg11.dtd">
<svg version="1.1" id="Layer_19" xmlns="http://www.w3.org/2000/svg" xmlns:xlink="http://www.w3.org/1999/xlink" x="0px" y="0px"
	 width="47.165px" height="42.703px" viewBox="0 0 47.165 42.703" enable-background="new 0 0 47.165 42.703" xml:space="preserve">
<g>
	<path d="M36.983,35.126c0.197-1.842,0.671-3.483,0.483-5.044c-0.527-4.377-3.8-7.405-8.247-7.959
		c-2.922-0.364-5.754-0.288-8.038,1.955c-2.793,2.743-2.581,8.038,0.403,10.286c1.485,1.119,3.143,1.351,4.88,0.961
		c-1.051-0.53-2.24-0.902-3.135-1.633c-1.512-1.235-1.734-3.809-0.726-5.708c0.985-1.853,3.216-2.855,5.401-2.424
		c2.943,0.58,4.655,2.683,4.421,5.431c-0.27,3.171-2.409,5.094-5.752,5.17c-5.407,0.123-9.046-3.686-8.71-9.109
		c0.191-3.082,1.2-5.859,3.02-8.353c2.496-3.42,6.056-4.366,10.036-4.375c3.149-0.007,6.305,0.091,9.445-0.088
		c3.649-0.208,5.879-2.959,5.601-6.589c-0.187-2.446-1.794-3.757-3.857-4.567c-1.963-0.771-3.908-0.763-5.796,0.816
		c0.926,0,1.661-0.109,2.353,0.02c2.286,0.428,3.653,2.36,3.358,4.623c-0.331,2.542-2.526,4.406-4.968,4.219
		c-2.268-0.174-3.941-1.375-4.511-3.239c-0.676-2.208,0.007-4.666,1.883-5.915c3.027-2.015,6.239-1.909,9.341-0.217
		c2.827,1.542,3.573,4.109,3.214,7.203c-0.302,2.605-0.934,5.066-2.246,7.343c-1.801,3.127-4.57,4.602-8.109,4.765
		c-0.501,0.023-1.003,0.003-1.806,0.003C38.487,26.482,38.675,30.571,36.983,35.126z"/>
	<path d="M23.954,0.722c-1.007,0-2.178-0.104-3.325,0.02c-3.016,0.326-4.971,2.176-5.367,5.584
		c-0.261,2.246-0.137,4.602,0.234,6.839c0.471,2.836,1.691,3.62,4.586,3.673c0.254,0.005,0.506,0.067,0.76,0.102
		c0.003,0.122,0.007,0.243,0.01,0.365c-0.556,0-1.116,0.045-1.667-0.008c-2.63-0.25-4.406,1.078-5.683,3.17
		c-2.5,4.099-3.017,13.264,1.215,18.136c1.809,2.083,4.163,3.092,6.808,3.211c2.451,0.11,4.918-0.155,7.154-0.246
		c-2.964,1.005-6.269,1.299-9.632,1.051c-3.902-0.289-7.752-0.891-11.376-2.445c-4.165-1.785-6.973-4.803-7.586-9.391
		c-0.583-4.359,1.875-8.466,6.034-10.726c2.886-1.569,5.953-2.508,9.222-2.802c0.165-0.015,0.326-0.084,0.661-0.175
		c-2.042-0.712-3.919-1.309-5.754-2.016c-5.294-2.04-4.568-7.611-2.2-10.487C11.147,0.816,19.653-1.16,23.954,0.722z"/>
	<path d="M24.354,5.645c-2.226,0.007-2.7,0.334-2.92,1.787c-0.248,1.638,0.566,3.142,1.97,3.641c2.099,0.746,3.96-0.17,5.42-2.588
		c-0.251,1.421-1.046,2.52-2.34,3.123c-2.445,1.139-4.933,1.067-7.282-0.278c-1.37-0.785-2.02-2.093-1.816-3.688
		c0.22-1.726,1.317-2.795,2.934-3.226C21.733,4.039,23.053,4.337,24.354,5.645z"/>
</g>
</svg>
